<?xml version="1.0" standalone="no"?>
<!DOCTYPE svg PUBLIC "-//W3C//DTD SVG 20010904//EN"
 "http://www.w3.org/TR/2001/REC-SVG-20010904/DTD/svg10.dtd">
<svg version="1.0" xmlns="http://www.w3.org/2000/svg"
 width="829.000000pt" height="901.000000pt" viewBox="0 0 829.000000 901.000000"
 preserveAspectRatio="xMidYMid meet">

<g transform="translate(0.000000,901.000000) scale(0.100000,-0.100000)"
fill="#000000" stroke="none">
<path d="M4490 8995 c-228 -35 -553 -114 -735 -180 -126 -45 -447 -203 -585
-287 -338 -207 -713 -559 -957 -898 -115 -161 -279 -454 -343 -615 -18 -44
-38 -93 -45 -110 -38 -86 -106 -310 -171 -560 -40 -154 -84 -323 -99 -375 -15
-52 -31 -115 -36 -140 -5 -25 -32 -135 -60 -245 -28 -110 -61 -245 -74 -300
-13 -55 -40 -163 -60 -240 -62 -235 -93 -358 -170 -660 -40 -159 -90 -353
-110 -430 -37 -140 -155 -612 -239 -950 -47 -192 -121 -480 -163 -635 -14 -52
-44 -171 -68 -265 -74 -291 -182 -715 -216 -840 -17 -66 -37 -148 -45 -182 -7
-34 -26 -111 -42 -170 -17 -59 -42 -160 -57 -223 -15 -63 -41 -162 -57 -220
-91 -328 -102 -380 -77 -380 8 0 520 -1 1139 -3 619 -2 1697 0 2395 4 1370 8
1312 5 1575 63 316 69 424 108 751 271 507 252 956 679 1248 1188 136 236 297
629 334 817 4 24 139 555 207 815 90 348 132 514 141 555 5 25 20 88 34 140
68 250 78 289 90 340 7 30 30 118 50 195 21 77 43 165 50 195 7 30 29 123 49
205 40 164 67 305 88 460 18 135 18 636 0 765 -80 567 -261 1035 -578 1497
-139 203 -346 441 -491 565 -373 320 -678 502 -1123 672 -151 57 -414 120
-670 161 -124 19 -751 19 -880 0z m665 -425 c377 -34 705 -126 1040 -290 307
-150 562 -335 800 -581 375 -389 640 -886 749 -1407 43 -205 59 -361 59 -582
1 -386 -62 -720 -200 -1064 -89 -225 -214 -458 -304 -571 -50 -61 -77 -96 -94
-119 -45 -63 -57 -76 -65 -71 -4 3 -6 14 -3 25 4 16 8 18 19 9 8 -6 14 -9 14
-6 0 2 -7 10 -15 17 -12 10 -16 8 -24 -11 -5 -15 -5 -29 2 -37 10 -13 4 -23
-57 -89 -17 -18 -34 -33 -40 -33 -5 0 -1 6 9 14 13 9 16 18 10 32 -5 10 -10
24 -10 29 -1 6 -5 17 -9 27 -4 9 -6 31 -3 50 3 29 4 28 5 -10 1 -29 6 -41 13
-36 6 3 15 1 19 -6 5 -9 8 -5 9 11 0 13 1 33 2 44 2 11 2 39 1 63 -2 35 -5 42
-22 42 -17 0 -20 7 -20 43 0 43 0 44 33 40 56 -7 9 13 -165 71 -174 57 -228
77 -295 107 -24 10 -47 19 -52 19 -11 0 -103 40 -218 96 -50 24 -97 44 -103
44 -10 0 -10 3 0 15 7 8 19 15 26 15 8 0 14 7 14 15 0 12 -5 13 -27 4 -23 -8
-26 -8 -15 2 6 7 12 30 12 51 0 29 4 38 18 38 23 1 52 24 52 42 0 8 -11 20
-24 27 -23 13 -23 17 -23 132 0 68 4 119 10 119 5 0 7 9 4 20 -4 15 0 20 14
20 18 0 18 1 -1 20 -11 11 -24 20 -29 20 -5 0 -15 13 -22 29 -7 17 -21 32 -31
34 -13 4 -18 15 -18 37 0 35 -12 63 -44 96 -36 40 -47 54 -39 54 4 0 2 5 -5
12 -20 20 -14 35 31 78 243 237 377 377 374 392 -3 10 0 15 8 12 15 -6 39 21
31 35 -4 5 -2 12 4 16 5 3 10 1 10 -6 0 -8 4 -8 15 1 17 14 21 35 5 25 -5 -3
-10 -1 -10 5 0 21 -28 40 -47 33 -16 -6 -16 -5 -4 10 12 15 11 17 -2 17 -18 0
-31 32 -23 58 7 20 -10 50 -21 38 -4 -5 -2 -11 5 -13 6 -3 10 -9 6 -14 -3 -5
-13 -2 -22 8 -12 12 -13 18 -4 21 14 4 16 38 2 47 -5 3 -7 12 -3 20 3 9 -1 15
-11 15 -9 0 -16 8 -16 20 0 11 -7 20 -15 20 -8 0 -15 5 -15 10 0 6 4 10 9 10
6 0 7 17 4 38 -6 41 -13 53 -20 35 -3 -7 -13 -13 -23 -13 -20 0 -27 22 -34
107 -2 23 -7 47 -11 53 -4 6 -1 18 6 26 6 8 9 18 5 21 -4 4 -11 1 -16 -7 -7
-12 -10 -9 -10 12 0 21 -4 25 -20 21 -18 -5 -20 -2 -14 43 3 27 7 54 9 60 4
12 -36 34 -60 34 -7 0 -41 16 -75 35 -34 19 -68 35 -75 35 -21 0 -26 16 -10
30 19 16 19 30 -1 30 -8 0 -12 5 -9 10 9 14 -6 150 -16 150 -5 0 -9 -18 -9
-40 0 -22 -4 -40 -10 -40 -5 0 -10 18 -10 40 0 22 5 40 10 40 6 0 10 50 10
129 l0 129 35 22 c37 23 45 40 20 40 -8 0 -15 -5 -15 -11 0 -8 -5 -8 -15 1 -8
7 -15 16 -15 21 0 5 7 6 15 3 10 -4 15 0 15 14 0 11 11 29 25 40 14 11 25 25
25 31 0 6 6 11 14 11 9 0 16 -12 18 -32 l3 -33 17 31 c20 36 45 49 64 33 11
-9 17 -5 31 19 13 22 27 32 48 34 16 2 29 8 27 13 -4 12 30 23 78 24 49 2 112
20 105 32 -4 5 22 9 62 10 61 0 177 15 145 18 -7 0 -10 6 -7 11 3 6 39 10 78
10 79 0 151 16 142 31 -4 5 -1 9 4 9 6 0 11 -7 11 -15 0 -8 5 -15 10 -15 6 0
13 7 16 15 7 17 41 20 46 5 2 -6 8 -2 15 9 10 16 8 23 -8 43 l-21 23 -796 0
c-732 0 -804 -1 -882 -18 -537 -115 -940 -473 -1115 -992 -7 -22 -53 -191
-100 -375 -48 -184 -91 -348 -96 -365 -4 -16 -17 -64 -28 -105 -11 -41 -36
-136 -56 -210 -20 -74 -41 -152 -46 -174 -5 -21 -16 -51 -24 -66 -8 -15 -13
-40 -12 -56 1 -21 -2 -28 -13 -27 -13 2 -15 -5 -12 -35 3 -34 2 -36 -12 -18
-9 10 -13 23 -10 27 3 5 -11 9 -30 9 -25 0 -36 4 -36 15 0 20 -20 19 -49 -1
-14 -10 -26 -13 -30 -7 -3 6 -13 13 -21 16 -8 3 0 6 18 6 42 1 41 18 -2 27
-19 3 -37 12 -40 19 -3 8 -21 17 -40 20 -22 5 -36 14 -39 26 -3 10 -12 19 -21
19 -9 0 -16 6 -16 14 0 15 -21 26 -50 26 -11 0 -23 6 -27 13 -4 6 -17 17 -28
23 -29 16 -31 42 -3 47 15 3 10 5 -14 6 -33 1 -38 4 -38 26 0 22 -4 25 -36 25
-28 0 -35 3 -30 15 3 8 1 15 -4 15 -6 0 -10 -7 -10 -15 0 -24 -29 -17 -60 15
-25 25 -37 30 -80 30 -38 0 -50 4 -50 15 0 8 7 15 15 15 8 0 15 5 15 10 0 13
-33 13 -47 -1 -27 -27 -73 23 -57 64 3 9 -3 16 -15 20 -12 3 -19 2 -17 -2 3
-4 -2 -20 -10 -36 -8 -16 -19 -49 -25 -74 -5 -25 -25 -98 -45 -161 -64 -206
-116 -374 -126 -410 -12 -42 -23 -56 -32 -41 -4 6 -3 11 2 11 6 0 12 16 14 35
4 36 -7 49 -15 18 -3 -10 -5 -4 -6 14 -1 35 -21 57 -21 24 0 -17 -6 -21 -35
-21 -34 0 -35 1 -35 41 l0 41 -47 -6 c-33 -4 -41 -3 -28 3 13 6 3 8 -32 4
l-53 -6 -1 44 c-1 24 -3 36 -6 27 -5 -22 -17 -23 -37 -3 -8 8 -19 15 -25 15
-6 0 -15 8 -20 18 -5 10 -25 24 -45 32 -38 14 -45 25 -23 34 6 3 0 3 -16 -1
-15 -3 -33 -1 -40 5 -6 5 -24 10 -38 10 -27 -1 -79 28 -79 43 0 5 -18 17 -40
26 -22 10 -40 25 -40 33 0 8 -10 20 -22 25 -14 6 -22 17 -20 27 3 19 -14 25
-84 30 -27 2 -40 -1 -37 -8 2 -6 -3 -11 -12 -11 -11 0 -13 6 -9 21 4 12 7 27
7 34 0 6 4 12 9 12 4 0 8 17 8 38 0 20 7 61 14 90 17 63 16 57 16 83 0 11 4
17 10 14 5 -3 7 0 4 9 -6 15 165 705 215 869 50 161 135 358 232 537 218 399
582 779 997 1038 509 318 1159 475 1747 422z m1236 -2453 c-16 -16 -26 0 -10
19 9 11 15 12 17 4 2 -6 -1 -17 -7 -23z m9 -33 c0 -17 -22 -14 -28 4 -2 7 3
12 12 12 9 0 16 -7 16 -16z m95 -214 c3 -5 1 -10 -4 -10 -6 0 -11 5 -11 10 0
6 2 10 4 10 3 0 8 -4 11 -10z m-4594 -513 c-8 -8 -11 -7 -11 4 0 20 13 34 18
19 3 -7 -1 -17 -7 -23z m99 7 c0 -17 -22 -14 -28 4 -2 7 3 12 12 12 9 0 16 -7
16 -16z m1615 -203 c-2 -2 -11 3 -19 12 -8 8 -12 17 -9 21 3 3 12 -2 19 -12 7
-9 11 -19 9 -21z m105 -115 c0 -8 -4 -18 -10 -21 -5 -3 -10 3 -10 14 0 12 5
21 10 21 6 0 10 -6 10 -14z m50 -1 c0 -8 -7 -15 -15 -15 -8 0 -15 7 -15 15 0
8 7 15 15 15 8 0 15 -7 15 -15z m-1130 -10 c0 -8 -9 -15 -20 -15 -11 0 -20 -4
-20 -10 0 -5 9 -10 20 -10 11 0 20 -4 20 -10 0 -5 -9 -10 -20 -10 -11 0 -20 5
-20 10 0 6 -9 10 -20 10 -11 0 -20 5 -20 10 0 6 9 10 20 10 11 0 20 7 20 15 0
8 9 15 20 15 11 0 20 -7 20 -15z m1172 -69 c-3 -19 -7 -24 -12 -15 -4 8 -5 32
-2 54 5 35 6 37 12 15 3 -14 4 -38 2 -54z m2428 4 c0 -5 -4 -10 -9 -10 -6 0
-13 5 -16 10 -3 6 1 10 9 10 9 0 16 -4 16 -10z m-2520 -74 c0 -3 -4 -8 -10
-11 -5 -3 -10 -1 -10 4 0 6 5 11 10 11 6 0 10 -2 10 -4z m2519 -103 l-2 -48
-6 40 c-7 38 -5 55 5 55 2 0 3 -21 3 -47z m1 -163 c0 -47 -2 -50 -25 -50 -22
0 -25 4 -25 36 0 34 20 63 43 64 4 0 7 -22 7 -50z m773 -517 c-7 -2 -19 -2
-25 0 -7 3 -2 5 12 5 14 0 19 -2 13 -5z m37 -323 c0 -5 -4 -10 -10 -10 -5 0
-10 5 -10 10 0 6 5 10 10 10 6 0 10 -4 10 -10z m-35 -10 c3 -5 1 -10 -4 -10
-6 0 -11 5 -11 10 0 6 2 10 4 10 3 0 8 -4 11 -10z m-20 -44 c-6 -20 -6 -21 9
-2 9 11 18 17 21 14 3 -3 -13 -25 -36 -49 -22 -24 -31 -31 -19 -14 13 18 17
31 10 33 -7 3 -7 9 2 20 10 12 10 16 1 19 -7 3 -13 9 -13 15 0 6 6 5 15 -2 9
-8 13 -21 10 -34z m-55 -50 c0 -2 -8 -10 -17 -17 -16 -13 -17 -12 -4 4 13 16
21 21 21 13z"/>
<path d="M6080 6889 c0 -5 5 -7 10 -4 6 3 10 8 10 11 0 2 -4 4 -10 4 -5 0 -10
-5 -10 -11z"/>
<path d="M6080 6729 c0 -5 5 -7 10 -4 6 3 10 8 10 11 0 2 -4 4 -10 4 -5 0 -10
-5 -10 -11z"/>
<path d="M3040 5566 c0 -9 7 -16 16 -16 17 0 14 22 -4 28 -7 2 -12 -3 -12 -12z"/>
<path d="M2160 5359 c0 -11 5 -17 10 -14 6 3 10 13 10 21 0 8 -4 14 -10 14 -5
0 -10 -9 -10 -21z"/>
<path d="M2205 5310 c-3 -5 3 -10 14 -10 12 0 21 5 21 10 0 6 -6 10 -14 10 -8
0 -18 -4 -21 -10z"/>
<path d="M3600 5236 c0 -9 7 -16 16 -16 17 0 14 22 -4 28 -7 2 -12 -3 -12 -12z"/>
<path d="M2560 5109 c0 -5 5 -7 10 -4 6 3 10 8 10 11 0 2 -4 4 -10 4 -5 0 -10
-5 -10 -11z"/>
<path d="M6320 4870 c0 -20 5 -30 15 -30 10 0 15 10 15 30 0 20 -5 30 -15 30
-10 0 -15 -10 -15 -30z"/>
<path d="M6320 4780 c0 -29 -4 -40 -15 -40 -10 0 -15 -11 -15 -35 0 -24 5 -35
15 -35 8 0 15 6 15 14 0 8 9 18 20 21 22 7 26 20 10 30 -5 3 -10 24 -10 46 0
21 -4 39 -10 39 -5 0 -10 -18 -10 -40z"/>
<path d="M7091 3844 c0 -11 3 -14 6 -6 3 7 2 16 -1 19 -3 4 -6 -2 -5 -13z"/>
</g>
</svg>
